<svg width="337" height="50" viewBox="0 0 337 50" fill="none" xmlns="http://www.w3.org/2000/svg">
<path d="M123.72 22.24C123.72 22.9467 123.553 23.6133 123.22 24.24C122.887 24.8667 122.353 25.38 121.62 25.78C120.887 26.1667 119.947 26.36 118.8 26.36H116.28V32H114V18.1H118.8C119.867 18.1 120.767 18.2867 121.5 18.66C122.247 19.02 122.8 19.5133 123.16 20.14C123.533 20.7667 123.72 21.4667 123.72 22.24ZM118.8 24.5C119.667 24.5 120.313 24.3067 120.74 23.92C121.167 23.52 121.38 22.96 121.38 22.24C121.38 20.72 120.52 19.96 118.8 19.96H116.28V24.5H118.8ZM128.175 17.2V32H125.895V17.2H128.175ZM130.408 26.44C130.408 25.3333 130.635 24.3533 131.088 23.5C131.555 22.6467 132.181 21.9867 132.968 21.52C133.768 21.04 134.648 20.8 135.608 20.8C136.475 20.8 137.228 20.9733 137.868 21.32C138.521 21.6533 139.041 22.0733 139.428 22.58V20.98H141.728V32H139.428V30.36C139.041 30.88 138.515 31.3133 137.848 31.66C137.181 32.0067 136.421 32.18 135.568 32.18C134.621 32.18 133.755 31.94 132.968 31.46C132.181 30.9667 131.555 30.2867 131.088 29.42C130.635 28.54 130.408 27.5467 130.408 26.44ZM139.428 26.48C139.428 25.72 139.268 25.06 138.948 24.5C138.641 23.94 138.235 23.5133 137.728 23.22C137.221 22.9267 136.675 22.78 136.088 22.78C135.501 22.78 134.955 22.9267 134.448 23.22C133.941 23.5 133.528 23.92 133.208 24.48C132.901 25.0267 132.748 25.68 132.748 26.44C132.748 27.2 132.901 27.8667 133.208 28.44C133.528 29.0133 133.941 29.4533 134.448 29.76C134.968 30.0533 135.515 30.2 136.088 30.2C136.675 30.2 137.221 30.0533 137.728 29.76C138.235 29.4667 138.641 29.04 138.948 28.48C139.268 27.9067 139.428 27.24 139.428 26.48ZM143.963 26.48C143.963 25.3467 144.189 24.3533 144.643 23.5C145.109 22.6333 145.749 21.9667 146.563 21.5C147.376 21.0333 148.309 20.8 149.363 20.8C150.696 20.8 151.796 21.12 152.663 21.76C153.543 22.3867 154.136 23.2867 154.443 24.46H151.983C151.783 23.9133 151.463 23.4867 151.023 23.18C150.583 22.8733 150.029 22.72 149.363 22.72C148.429 22.72 147.683 23.0533 147.123 23.72C146.576 24.3733 146.303 25.2933 146.303 26.48C146.303 27.6667 146.576 28.5933 147.123 29.26C147.683 29.9267 148.429 30.26 149.363 30.26C150.683 30.26 151.556 29.68 151.983 28.52H154.443C154.123 29.64 153.523 30.5333 152.643 31.2C151.763 31.8533 150.669 32.18 149.363 32.18C148.309 32.18 147.376 31.9467 146.563 31.48C145.749 31 145.109 30.3333 144.643 29.48C144.189 28.6133 143.963 27.6133 143.963 26.48ZM166.815 26.22C166.815 26.6333 166.788 27.0067 166.735 27.34H158.315C158.382 28.22 158.708 28.9267 159.295 29.46C159.882 29.9933 160.602 30.26 161.455 30.26C162.682 30.26 163.548 29.7467 164.055 28.72H166.515C166.182 29.7333 165.575 30.5667 164.695 31.22C163.828 31.86 162.748 32.18 161.455 32.18C160.402 32.18 159.455 31.9467 158.615 31.48C157.788 31 157.135 30.3333 156.655 29.48C156.188 28.6133 155.955 27.6133 155.955 26.48C155.955 25.3467 156.182 24.3533 156.635 23.5C157.102 22.6333 157.748 21.9667 158.575 21.5C159.415 21.0333 160.375 20.8 161.455 20.8C162.495 20.8 163.422 21.0267 164.235 21.48C165.048 21.9333 165.682 22.5733 166.135 23.4C166.588 24.2133 166.815 25.1533 166.815 26.22ZM164.435 25.5C164.422 24.66 164.122 23.9867 163.535 23.48C162.948 22.9733 162.222 22.72 161.355 22.72C160.568 22.72 159.895 22.9733 159.335 23.48C158.775 23.9733 158.442 24.6467 158.335 25.5H164.435ZM173.494 26.44C173.494 25.3333 173.721 24.3533 174.174 23.5C174.641 22.6467 175.267 21.9867 176.054 21.52C176.854 21.04 177.734 20.8 178.694 20.8C179.561 20.8 180.314 20.9733 180.954 21.32C181.607 21.6533 182.127 22.0733 182.514 22.58V20.98H184.814V32H182.514V30.36C182.127 30.88 181.601 31.3133 180.934 31.66C180.267 32.0067 179.507 32.18 178.654 32.18C177.707 32.18 176.841 31.94 176.054 31.46C175.267 30.9667 174.641 30.2867 174.174 29.42C173.721 28.54 173.494 27.5467 173.494 26.44ZM182.514 26.48C182.514 25.72 182.354 25.06 182.034 24.5C181.727 23.94 181.321 23.5133 180.814 23.22C180.307 22.9267 179.761 22.78 179.174 22.78C178.587 22.78 178.041 22.9267 177.534 23.22C177.027 23.5 176.614 23.92 176.294 24.48C175.987 25.0267 175.834 25.68 175.834 26.44C175.834 27.2 175.987 27.8667 176.294 28.44C176.614 29.0133 177.027 29.4533 177.534 29.76C178.054 30.0533 178.601 30.2 179.174 30.2C179.761 30.2 180.307 30.0533 180.814 29.76C181.321 29.4667 181.727 29.04 182.034 28.48C182.354 27.9067 182.514 27.24 182.514 26.48ZM195.284 22.62C195.671 22.0867 196.197 21.6533 196.864 21.32C197.544 20.9733 198.297 20.8 199.124 20.8C200.097 20.8 200.977 21.0333 201.764 21.5C202.551 21.9667 203.171 22.6333 203.624 23.5C204.077 24.3533 204.304 25.3333 204.304 26.44C204.304 27.5467 204.077 28.54 203.624 29.42C203.171 30.2867 202.544 30.9667 201.744 31.46C200.957 31.94 200.084 32.18 199.124 32.18C198.271 32.18 197.511 32.0133 196.844 31.68C196.191 31.3467 195.671 30.92 195.284 30.4V32H193.004V17.2H195.284V22.62ZM201.984 26.44C201.984 25.68 201.824 25.0267 201.504 24.48C201.197 23.92 200.784 23.5 200.264 23.22C199.757 22.9267 199.211 22.78 198.624 22.78C198.051 22.78 197.504 22.9267 196.984 23.22C196.477 23.5133 196.064 23.94 195.744 24.5C195.437 25.06 195.284 25.72 195.284 26.48C195.284 27.24 195.437 27.9067 195.744 28.48C196.064 29.04 196.477 29.4667 196.984 29.76C197.504 30.0533 198.051 30.2 198.624 30.2C199.211 30.2 199.757 30.0533 200.264 29.76C200.784 29.4533 201.197 29.0133 201.504 28.44C201.824 27.8667 201.984 27.2 201.984 26.44ZM207.719 19.52C207.305 19.52 206.959 19.38 206.679 19.1C206.399 18.82 206.259 18.4733 206.259 18.06C206.259 17.6467 206.399 17.3 206.679 17.02C206.959 16.74 207.305 16.6 207.719 16.6C208.119 16.6 208.459 16.74 208.739 17.02C209.019 17.3 209.159 17.6467 209.159 18.06C209.159 18.4733 209.019 18.82 208.739 19.1C208.459 19.38 208.119 19.52 207.719 19.52ZM208.839 20.98V32H206.559V20.98H208.839ZM211.072 26.44C211.072 25.3333 211.299 24.3533 211.752 23.5C212.219 22.6467 212.845 21.9867 213.632 21.52C214.432 21.04 215.319 20.8 216.292 20.8C217.012 20.8 217.719 20.96 218.412 21.28C219.119 21.5867 219.679 22 220.092 22.52V17.2H222.392V32H220.092V30.34C219.719 30.8733 219.199 31.3133 218.532 31.66C217.879 32.0067 217.125 32.18 216.272 32.18C215.312 32.18 214.432 31.94 213.632 31.46C212.845 30.9667 212.219 30.2867 211.752 29.42C211.299 28.54 211.072 27.5467 211.072 26.44ZM220.092 26.48C220.092 25.72 219.932 25.06 219.612 24.5C219.305 23.94 218.899 23.5133 218.392 23.22C217.885 22.9267 217.339 22.78 216.752 22.78C216.165 22.78 215.619 22.9267 215.112 23.22C214.605 23.5 214.192 23.92 213.872 24.48C213.565 25.0267 213.412 25.68 213.412 26.44C213.412 27.2 213.565 27.8667 213.872 28.44C214.192 29.0133 214.605 29.4533 215.112 29.76C215.632 30.0533 216.179 30.2 216.752 30.2C217.339 30.2 217.885 30.0533 218.392 29.76C218.899 29.4667 219.305 29.04 219.612 28.48C219.932 27.9067 220.092 27.24 220.092 26.48Z" fill="url(#paint0_linear_2_295)"/>
<rect x="0.5" y="0.5" width="336" height="49" rx="9.5" stroke="url(#paint1_linear_2_295)"/>
<defs>
<linearGradient id="paint0_linear_2_295" x1="207.7" y1="10" x2="200.054" y2="52.2864" gradientUnits="userSpaceOnUse">
<stop stop-color="#B75CFF"/>
<stop offset="1" stop-color="#671AE4"/>
</linearGradient>
<linearGradient id="paint1_linear_2_295" x1="286.45" y1="-2.30223e-06" x2="279.233" y2="72.0585" gradientUnits="userSpaceOnUse">
<stop stop-color="#B75CFF"/>
<stop offset="1" stop-color="#671AE4"/>
</linearGradient>
</defs>
</svg>
